<svg xmlns="http://www.w3.org/2000/svg">
    <symbol id="settings" viewBox="0 0 20 20">
        <path fill-rule="evenodd" clip-rule="evenodd" d="M10 8.33333C9.07952 8.33333 8.33333 9.07952 8.33333 10C8.33333 10.9205 9.07952 11.6667 10 11.6667C10.9205 11.6667 11.6667 10.9205 11.6667 10C11.6667 9.07952 10.9205 8.33333 10 8.33333ZM6.66667 10C6.66667 8.15905 8.15905 6.66667 10 6.66667C11.8409 6.66667 13.3333 8.15905 13.3333 10C13.3333 11.8409 11.8409 13.3333 10 13.3333C8.15905 13.3333 6.66667 11.8409 6.66667 10Z" />
        <path fill-rule="evenodd" clip-rule="evenodd" d="M10 1.66667C9.77899 1.66667 9.56703 1.75446 9.41074 1.91074C9.25446 2.06702 9.16667 2.27899 9.16667 2.5V2.64499C9.16495 3.07566 9.03733 3.49644 8.79953 3.85551C8.56173 4.21459 8.22413 4.49629 7.82828 4.66595C7.75781 4.69615 7.68368 4.71641 7.60801 4.7263C7.24831 4.85226 6.8611 4.88331 6.48417 4.81497C6.05 4.73625 5.64937 4.52927 5.33395 4.22072L5.32737 4.21429L5.27741 4.16426C5.20002 4.08677 5.10778 4.02498 5.00662 3.98304C4.90545 3.94111 4.79701 3.91952 4.6875 3.91952C4.57799 3.91952 4.46955 3.94111 4.36838 3.98304C4.26722 4.02498 4.17531 4.08645 4.09792 4.16393L4.09726 4.16458C4.01978 4.24198 3.95831 4.33388 3.91638 4.43505C3.87444 4.53621 3.85286 4.64465 3.85286 4.75417C3.85286 4.86368 3.87444 4.97212 3.91638 5.07328C3.95831 5.17445 4.01978 5.26636 4.09726 5.34375L4.15409 5.40058C4.46264 5.71601 4.66958 6.11667 4.7483 6.55083C4.82546 6.97636 4.77594 7.41497 4.60621 7.81231C4.45157 8.21777 4.18081 8.56889 3.82754 8.82157C3.46712 9.07935 3.03748 9.22274 2.59449 9.2331L2.575 9.23333H2.5C2.27899 9.23333 2.06702 9.32113 1.91074 9.47741C1.75446 9.63369 1.66667 9.84565 1.66667 10.0667C1.66667 10.2877 1.75446 10.4996 1.91074 10.6559C2.06702 10.8122 2.27899 10.9 2.5 10.9H2.64499C3.07566 10.9017 3.49644 11.0293 3.85551 11.2671C4.21334 11.5041 4.49433 11.8402 4.66418 12.2343C4.8409 12.6369 4.89342 13.0831 4.81497 13.5158C4.73625 13.95 4.52927 14.3506 4.22072 14.6661L4.21429 14.6726L4.16425 14.7226C4.08677 14.8 4.02498 14.8922 3.98304 14.9934C3.94111 15.0945 3.91952 15.203 3.91952 15.3125C3.91952 15.422 3.94111 15.5305 3.98304 15.6316C4.02498 15.7328 4.08645 15.8247 4.16393 15.9021L4.16458 15.9027C4.24198 15.9802 4.33388 16.0417 4.43505 16.0836C4.53622 16.1256 4.64465 16.1471 4.75417 16.1471C4.86368 16.1471 4.97212 16.1256 5.07328 16.0836C5.17445 16.0417 5.26636 15.9802 5.34375 15.9027L5.40058 15.8459C5.71601 15.5374 6.11667 15.3304 6.55083 15.2517C6.97635 15.1745 7.41497 15.2241 7.81231 15.3938C8.21777 15.5484 8.56889 15.8192 8.82157 16.1725C9.07935 16.5329 9.22274 16.9625 9.2331 17.4055L9.23333 17.425V17.5C9.23333 17.721 9.32113 17.933 9.47741 18.0893C9.63369 18.2455 9.84565 18.3333 10.0667 18.3333C10.2877 18.3333 10.4996 18.2455 10.6559 18.0893C10.8122 17.933 10.9 17.721 10.9 17.5V17.3583L10.9 17.355C10.9017 16.9243 11.0293 16.5036 11.2671 16.1445C11.5041 15.7866 11.8402 15.5056 12.2344 15.3358C12.637 15.1591 13.0832 15.1066 13.5158 15.185C13.95 15.2638 14.3506 15.4707 14.6661 15.7793L14.6726 15.7857L14.7226 15.8357C14.8 15.9132 14.8922 15.975 14.9934 16.017C15.0945 16.0589 15.203 16.0805 15.3125 16.0805C15.422 16.0805 15.5305 16.0589 15.6316 16.017C15.7328 15.975 15.8247 15.9136 15.9021 15.8361L15.9027 15.8354C15.9802 15.758 16.0417 15.6661 16.0836 15.5649C16.1256 15.4638 16.1471 15.3553 16.1471 15.2458C16.1471 15.1363 16.1256 15.0279 16.0836 14.9267C16.0417 14.8255 15.9802 14.7336 15.9027 14.6562L15.8459 14.5994C15.5374 14.284 15.3304 13.8833 15.2517 13.4492C15.1732 13.0165 15.2258 12.5703 15.4024 12.1677C15.5723 11.7736 15.8533 11.4375 16.2112 11.2005C16.5702 10.9627 16.991 10.8351 17.4217 10.8333L17.425 10.8333L17.5 10.8333C17.721 10.8333 17.933 10.7455 18.0893 10.5893C18.2455 10.433 18.3333 10.221 18.3333 10C18.3333 9.77899 18.2455 9.56703 18.0893 9.41074C17.933 9.25446 17.721 9.16667 17.5 9.16667H17.3583L17.355 9.16666C16.9243 9.16494 16.5036 9.03733 16.1445 8.79953C15.7854 8.56173 15.5037 8.22413 15.334 7.82828C15.3039 7.75781 15.2836 7.68368 15.2737 7.60801C15.1477 7.24831 15.1167 6.8611 15.185 6.48417C15.2638 6.05 15.4707 5.64938 15.7793 5.33395L15.7857 5.32738L15.8357 5.27741C15.9132 5.20002 15.975 5.10778 16.017 5.00662C16.0589 4.90545 16.0805 4.79701 16.0805 4.6875C16.0805 4.57799 16.0589 4.46955 16.017 4.36838C15.975 4.26722 15.9136 4.17531 15.8361 4.09792L15.8354 4.09726C15.758 4.01978 15.6661 3.95831 15.5649 3.91638C15.4638 3.87444 15.3553 3.85286 15.2458 3.85286C15.1363 3.85286 15.0279 3.87444 14.9267 3.91638C14.8256 3.95832 14.7336 4.01978 14.6562 4.09726L14.5994 4.15409C14.284 4.46264 13.8833 4.66958 13.4492 4.7483C13.0165 4.82676 12.5702 4.77423 12.1676 4.59751C11.7735 4.42767 11.4374 4.14667 11.2005 3.78885C10.9627 3.42977 10.8351 3.009 10.8333 2.57832L10.8333 2.575V2.5C10.8333 2.27899 10.7455 2.06702 10.5893 1.91074C10.433 1.75446 10.221 1.66667 10 1.66667ZM16.1667 12.5L16.9291 12.8365C16.8854 12.9355 16.8723 13.0453 16.8916 13.1518C16.9107 13.2571 16.9606 13.3544 17.0349 13.4314L17.0806 13.4771C17.3129 13.7092 17.4975 13.9851 17.6232 14.2885C17.7491 14.592 17.8138 14.9173 17.8138 15.2458C17.8138 15.5744 17.7491 15.8997 17.6232 16.2032C17.4974 16.5067 17.313 16.7824 17.0806 17.0146L16.4917 16.425L17.0813 17.0139C16.8491 17.2464 16.5733 17.4308 16.2698 17.5566C15.9664 17.6824 15.641 17.7471 15.3125 17.7471C14.984 17.7471 14.6586 17.6824 14.3551 17.5566C14.0518 17.4308 13.7762 17.2465 13.5441 17.0143L13.4981 16.9682C13.4211 16.8939 13.3238 16.8441 13.2185 16.825C13.112 16.8057 13.0022 16.8187 12.9031 16.8624L12.895 16.866C12.7979 16.9076 12.715 16.9767 12.6567 17.0647C12.5986 17.1525 12.5673 17.2552 12.5667 17.3604V17.5C12.5667 18.163 12.3033 18.7989 11.8344 19.2678C11.3656 19.7366 10.7297 20 10.0667 20C9.40362 20 8.76774 19.7366 8.2989 19.2678C7.83006 18.7989 7.56667 18.163 7.56667 17.5V17.437C7.56271 17.331 7.52772 17.2284 7.46595 17.142C7.40272 17.0536 7.31436 16.9863 7.21235 16.9488C7.19587 16.9427 7.17959 16.9361 7.16353 16.9291C7.06451 16.8854 6.95468 16.8723 6.84818 16.8916C6.74285 16.9107 6.64556 16.9606 6.56858 17.0349L6.52292 17.0806C6.2908 17.3129 6.01487 17.4975 5.71152 17.6232C5.40802 17.7491 5.08271 17.8138 4.75417 17.8138C4.42563 17.8138 4.10031 17.7491 3.79682 17.6232C3.49361 17.4976 3.21812 17.3134 2.98607 17.0813C2.75363 16.8491 2.56923 16.5733 2.44342 16.2698C2.31761 15.9664 2.25286 15.641 2.25286 15.3125C2.25286 14.984 2.31761 14.6586 2.44342 14.3551C2.56923 14.0517 2.75363 13.7759 2.98607 13.5437L3.03176 13.4981C3.10607 13.4211 3.15594 13.3238 3.17504 13.2185C3.19435 13.112 3.18131 13.0022 3.13761 12.9031L3.13401 12.895C3.09239 12.7979 3.02334 12.715 2.93526 12.6567C2.84753 12.5986 2.74479 12.5673 2.63958 12.5667H2.5C1.83696 12.5667 1.20107 12.3033 0.732233 11.8344C0.263392 11.3656 0 10.7297 0 10.0667C0 9.40363 0.263392 8.76774 0.732233 8.2989C1.20107 7.83006 1.83696 7.56667 2.5 7.56667H2.56303C2.66903 7.56271 2.7716 7.52772 2.85796 7.46595C2.94636 7.40272 3.0137 7.31436 3.05122 7.21235C3.05728 7.19587 3.06386 7.17959 3.07095 7.16353C3.11465 7.06451 3.12768 6.95468 3.10837 6.84818C3.08927 6.74285 3.0394 6.64557 2.96508 6.56859L2.91941 6.52292C2.68696 6.29073 2.50257 6.01501 2.37676 5.71152C2.25095 5.40802 2.18619 5.08271 2.18619 4.75417C2.18619 4.42563 2.25095 4.10031 2.37676 3.79682C2.50251 3.49346 2.68679 3.21786 2.91908 2.98574C3.15119 2.75346 3.4268 2.56917 3.73015 2.44342C4.03364 2.31761 4.35896 2.25286 4.6875 2.25286C5.01604 2.25286 5.34136 2.31761 5.64485 2.44342C5.94835 2.56923 6.22407 2.75363 6.45625 2.98607L6.50192 3.03175C6.5789 3.10607 6.67619 3.15594 6.78152 3.17504C6.88801 3.19435 6.99785 3.18131 7.09686 3.13761C7.15023 3.11406 7.20577 3.09624 7.26256 3.08435C7.32066 3.04491 7.37082 2.99436 7.40996 2.93526C7.46806 2.84753 7.49934 2.74479 7.5 2.63958V2.5C7.5 1.83696 7.76339 1.20107 8.23223 0.732233C8.70107 0.263392 9.33696 0 10 0C10.663 0 11.2989 0.263392 11.7678 0.732233C12.2366 1.20107 12.5 1.83696 12.5 2.5V2.57292C12.5007 2.67812 12.5319 2.78087 12.59 2.8686C12.6484 2.95667 12.7312 3.02577 12.8283 3.06738L12.8365 3.0709C12.9355 3.1146 13.0453 3.12768 13.1518 3.10837C13.2571 3.08928 13.3544 3.0394 13.4314 2.96509L13.4771 2.91941C13.7093 2.68696 13.985 2.50257 14.2885 2.37676C14.592 2.25095 14.9173 2.18619 15.2458 2.18619C15.5744 2.18619 15.8997 2.25095 16.2032 2.37676C16.5067 2.50257 16.7824 2.68697 17.0146 2.91941C17.2467 3.15145 17.4309 3.42694 17.5566 3.73015C17.6824 4.03364 17.7471 4.35896 17.7471 4.6875C17.7471 5.01604 17.6824 5.34136 17.5566 5.64485C17.4308 5.9482 17.2465 6.22381 17.0143 6.45592L16.9683 6.50192C16.8939 6.5789 16.8441 6.67618 16.825 6.78152C16.8057 6.88801 16.8187 6.99785 16.8624 7.09686C16.8859 7.15023 16.9038 7.20577 16.9156 7.26256C16.9551 7.32066 17.0056 7.37082 17.0647 7.40996C17.1525 7.46806 17.2552 7.49934 17.3604 7.5H17.5C18.163 7.5 18.7989 7.76339 19.2678 8.23223C19.7366 8.70107 20 9.33696 20 10C20 10.663 19.7366 11.2989 19.2678 11.7678C18.7989 12.2366 18.163 12.5 17.5 12.5H17.4271C17.3219 12.5007 17.2191 12.5319 17.1314 12.59C17.0433 12.6484 16.9742 12.7312 16.9326 12.8283L16.1667 12.5Z"/>
    </symbol>
    <symbol id="star" viewBox="0 0 22 22">
        <path fill-rule="evenodd" clip-rule="evenodd" d="M11 0C11.3806 0 11.7282 0.216072 11.8967 0.557376L14.7543 6.34647L21.1446 7.28051C21.5212 7.33555 21.8339 7.59956 21.9512 7.96157C22.0686 8.32357 21.9703 8.72083 21.6977 8.98636L17.0745 13.4894L18.1656 19.851C18.23 20.2261 18.0757 20.6053 17.7677 20.8291C17.4598 21.0528 17.0515 21.0823 16.7145 20.9051L11 17.8998L5.28545 20.9051C4.94853 21.0823 4.54024 21.0528 4.23226 20.8291C3.92429 20.6053 3.77004 20.2261 3.83439 19.851L4.92548 13.4894L0.302266 8.98636C0.0296477 8.72083 -0.0686252 8.32357 0.0487525 7.96157C0.16613 7.59956 0.47881 7.33555 0.85537 7.28051L7.24574 6.34647L10.1033 0.557376C10.2718 0.216072 10.6194 0 11 0ZM11 3.25925L8.80671 7.70262C8.66117 7.99747 8.37998 8.20193 8.05463 8.24949L3.14841 8.9666L6.69773 12.4236C6.93361 12.6534 7.04127 12.9845 6.98561 13.309L6.14818 18.1917L10.5345 15.8849C10.8259 15.7317 11.1741 15.7317 11.4655 15.8849L15.8518 18.1917L15.0144 13.309C14.9587 12.9845 15.0664 12.6534 15.3023 12.4236L18.8516 8.9666L13.9454 8.24949C13.62 8.20193 13.3388 7.99747 13.1933 7.70262L11 3.25925Z"/>
    </symbol>
    <symbol id="sidebar" viewBox="0 0 18 18">
        <path fill-rule="evenodd" clip-rule="evenodd" d="M3.16667 17.3333C1.78595 17.3333 0.666667 16.214 0.666667 14.8333V3.16667C0.666667 1.78595 1.78595 0.666667 3.16667 0.666667H14.8333C16.214 0.666667 17.3333 1.78595 17.3333 3.16667V14.8333C17.3333 16.214 16.214 17.3333 14.8333 17.3333H3.16667ZM2.33333 3.16667C2.33333 2.70643 2.70643 2.33333 3.16667 2.33333H5.66667V15.6667H3.16667C2.70643 15.6667 2.33333 15.2936 2.33333 14.8333V3.16667ZM7.33333 15.6667V2.33333H14.8333C15.2936 2.33333 15.6667 2.70643 15.6667 3.16667V14.8333C15.6667 15.2936 15.2936 15.6667 14.8333 15.6667H7.33333Z" />
    </symbol>
    <symbol id="pinned" viewBox="0 0 20 20">
        <g clip-path="url(#clip0_3_2253)">
            <path fill-rule="evenodd" clip-rule="evenodd" d="M1.42259 0.244078C1.09715 -0.0813592 0.569515 -0.0813592 0.244078 0.244078C-0.0813592 0.569515 -0.0813592 1.09715 0.244078 1.42259L5.42053 6.59904C5.05492 6.66319 4.70561 6.77158 4.3857 6.90092C3.34023 7.32361 2.43149 8.0332 1.90168 8.56301C1.79122 8.67347 1.72016 8.80819 1.68793 8.95055C1.67361 9.01057 1.66691 9.07221 1.66782 9.13395C1.66853 9.34733 1.75181 9.56206 1.91586 9.72611L5.51378 13.324L3.19222 15.6458C2.97658 15.8614 2.90573 16.1671 2.97966 16.4418C3.00819 16.5798 3.07599 16.7112 3.18305 16.8183C3.29034 16.9256 3.42213 16.9934 3.56041 17.0218C3.83494 17.0953 4.14008 17.0243 4.35547 16.8089L6.67664 14.4876L10.2743 18.0852C10.4299 18.2408 10.6396 18.3302 10.8577 18.3332L10.8597 18.3332L10.8674 18.3333C10.9342 18.3342 11 18.3262 11.0631 18.3098C11.2039 18.2752 11.3335 18.2032 11.4374 18.0994C11.9672 17.5696 12.6768 16.6608 13.0995 15.6154C13.2289 15.2953 13.3373 14.9458 13.4015 14.58L18.5774 19.7559C18.9028 20.0814 19.4305 20.0814 19.7559 19.7559C20.0814 19.4305 20.0814 18.9028 19.7559 18.5774L1.42259 0.244078ZM11.4151 12.5936L7.40665 8.58516C7.29309 8.56536 7.18187 8.52164 7.08081 8.45351C6.53769 8.08738 5.84038 8.10212 5.03399 8.42815C4.54546 8.62566 4.07996 8.91531 3.69516 9.20759L7.76261 13.275C7.76942 13.2818 7.77609 13.2887 7.78262 13.2957L10.7928 16.3059C11.0851 15.9211 11.3747 15.4556 11.5722 14.9671C11.8983 14.1607 11.913 13.4634 11.5469 12.9203C11.4786 12.819 11.4348 12.7074 11.4151 12.5936Z" />
            <path d="M16.3481 7.17203L13.527 9.99314L14.7043 11.1704L18.0998 7.77486C18.2594 7.61524 18.3368 7.40498 18.3336 7.19419C18.3375 7.00746 18.2717 6.81783 18.1368 6.66761C18.1207 6.64843 18.1037 6.62979 18.0856 6.61176L16.2761 4.80225C16.2696 4.79526 16.2629 4.78835 16.2561 4.78153L13.3893 1.91471C13.3715 1.89692 13.353 1.88 13.3339 1.86397C13.1955 1.73978 13.0172 1.66924 12.8329 1.66674C12.8249 1.66663 12.817 1.66665 12.8091 1.66679L12.8059 1.66674C12.5877 1.66378 12.3791 1.74765 12.2262 1.90053L8.8303 5.29643L10.0076 6.47371L12.829 3.65226L14.7195 5.54274C14.726 5.54973 14.7327 5.55663 14.7395 5.56344L16.3481 7.17203Z" />
        </g>
        <defs>
            <clipPath id="clip0_3_2253">
                <rect width="20" height="20" />
            </clipPath>
        </defs>
    </symbol>
    <symbol id="search" viewBox="0 0 20 20">
        <path fill-rule="evenodd" clip-rule="evenodd" d="M13.8481 15.0265C12.565 16.0529 10.9375 16.6667 9.16667 16.6667C5.02453 16.6667 1.66667 13.3088 1.66667 9.16667C1.66667 5.02453 5.02453 1.66667 9.16667 1.66667C13.3088 1.66667 16.6667 5.02453 16.6667 9.16667C16.6667 10.9375 16.053 12.565 15.0266 13.848L18.0892 16.9107C18.4147 17.2361 18.4147 17.7637 18.0892 18.0892C17.7638 18.4146 17.2362 18.4146 16.9107 18.0892L13.8481 15.0265ZM3.33333 9.16667C3.33333 5.94501 5.94501 3.33333 9.16667 3.33333C12.3883 3.33333 15 5.94501 15 9.16667C15 10.7381 14.3786 12.1644 13.3681 13.2133C13.3395 13.2353 13.312 13.2594 13.2857 13.2857C13.2595 13.3119 13.2354 13.3394 13.2134 13.3681C12.1645 14.3786 10.7382 15 9.16667 15C5.94501 15 3.33333 12.3883 3.33333 9.16667Z" />
    </symbol>
    <symbol id="plus" viewBox="0 0 14 14">
        <path d="M7.83333 1.16667C7.83333 0.706429 7.46024 0.333333 7 0.333333C6.53976 0.333333 6.16667 0.706429 6.16667 1.16667V6.16667H1.16667C0.706429 6.16667 0.333333 6.53976 0.333333 7C0.333333 7.46024 0.706429 7.83333 1.16667 7.83333H6.16667V12.8333C6.16667 13.2936 6.53976 13.6667 7 13.6667C7.46024 13.6667 7.83333 13.2936 7.83333 12.8333V7.83333H12.8333C13.2936 7.83333 13.6667 7.46024 13.6667 7C13.6667 6.53976 13.2936 6.16667 12.8333 6.16667H7.83333V1.16667Z" />
    </symbol>
    <symbol id="X" viewBox="0 0 14 14">
        <path d="M13.3877 1.95915C13.7596 1.58722 13.7596 0.984207 13.3877 0.612279C13.0158 0.240351 12.4128 0.240351 12.0408 0.612279L7 5.65313L1.95915 0.612279C1.58722 0.240351 0.984207 0.240351 0.612279 0.612279C0.240351 0.984207 0.240351 1.58722 0.612279 1.95915L5.65313 7L0.612279 12.0408C0.240351 12.4128 0.240351 13.0158 0.612279 13.3877C0.984207 13.7596 1.58722 13.7596 1.95915 13.3877L7 8.34687L12.0408 13.3877C12.4128 13.7596 13.0158 13.7596 13.3877 13.3877C13.7596 13.0158 13.7596 12.4128 13.3877 12.0408L8.34687 7L13.3877 1.95915Z"  />
    </symbol>
    <symbol id="calendar" viewBox="0 0 20 20">
        <path d="M4.16667 19.1687H15.8333C17.2167 19.1687 18.3333 18.052 18.3333 16.6687V5.00203C18.3333 3.6187 17.2167 2.50203 15.8333 2.50203H14.1667V1.6687C14.1667 1.21037 13.7917 0.835368 13.3333 0.835368C12.875 0.835368 12.5 1.21037 12.5 1.6687V2.50203H7.5V1.6687C7.5 1.21037 7.125 0.835368 6.66667 0.835368C6.20833 0.835368 5.83333 1.21037 5.83333 1.6687V2.50203H4.16667C2.78333 2.50203 1.66667 3.6187 1.66667 5.00203V16.6687C1.66667 18.052 2.78333 19.1687 4.16667 19.1687ZM15.8333 17.502H4.16667C3.70833 17.502 3.33333 17.127 3.33333 16.6687V9.1687H16.6667V16.6687C16.6667 17.127 16.2917 17.502 15.8333 17.502ZM4.16667 4.1687H5.83333V5.00203C5.83333 5.46037 6.20833 5.83537 6.66667 5.83537C7.125 5.83537 7.5 5.46037 7.5 5.00203V4.1687H12.5V5.00203C12.5 5.46037 12.875 5.83537 13.3333 5.83537C13.7917 5.83537 14.1667 5.46037 14.1667 5.00203V4.1687H15.8333C16.2917 4.1687 16.6667 4.5437 16.6667 5.00203V7.50203H3.33333V5.00203C3.33333 4.5437 3.70833 4.1687 4.16667 4.1687Z" />
    </symbol>
    <symbol id="close-x" viewBox="0 0 10 10">
        <path d="M9.47141 1.4714C9.73176 1.21105 9.73176 0.788945 9.47141 0.528596C9.21106 0.268246 8.78894 0.268246 8.52859 0.528596L5 4.05719L1.4714 0.528596C1.21105 0.268246 0.788945 0.268246 0.528596 0.528596C0.268246 0.788945 0.268246 1.21105 0.528596 1.4714L4.05719 5L0.528596 8.52859C0.268246 8.78894 0.268246 9.21106 0.528596 9.47141C0.788945 9.73176 1.21105 9.73176 1.4714 9.47141L5 5.94281L8.52859 9.47141C8.78894 9.73176 9.21106 9.73176 9.47141 9.47141C9.73176 9.21106 9.73176 8.78894 9.47141 8.52859L5.94281 5L9.47141 1.4714Z" />
    </symbol>
    <symbol id="filter" viewBox="0 0 16 16">
        <path fill-rule="evenodd" clip-rule="evenodd" d="M0.728597 1.71942C0.837836 1.48397 1.07379 1.33333 1.33334 1.33333H14.6667C14.9262 1.33333 15.1622 1.48397 15.2714 1.71942C15.3807 1.95486 15.3433 2.2323 15.1757 2.43048L10 8.55077V14C10 14.2311 9.88037 14.4456 9.68383 14.5671C9.48729 14.6886 9.24186 14.6996 9.0352 14.5963L6.36853 13.263C6.14268 13.15 6.00001 12.9192 6.00001 12.6667V8.55077L0.824296 2.43048C0.656697 2.2323 0.619358 1.95486 0.728597 1.71942ZM2.77021 2.66667L7.17572 7.87618C7.2775 7.99653 7.33334 8.14905 7.33334 8.30667V12.2546L8.66668 12.9213V8.30667C8.66668 8.14905 8.72252 7.99653 8.8243 7.87618L13.2298 2.66667H2.77021Z" />
    </symbol>
    <symbol id="disable" viewBox="0 0 16 16">
        <path d="M6.47336 10.4749C6.21336 10.7349 5.78671 10.7349 5.52671 10.4749C5.26671 10.2149 5.26671 9.78833 5.52671 9.52833L7.05336 8.00164L5.52671 6.47495C5.26671 6.21495 5.26671 5.78833 5.52671 5.52833C5.78671 5.26833 6.21336 5.26833 6.47336 5.52833L8.00003 7.05503L9.52671 5.52833C9.78671 5.26833 10.2134 5.26833 10.4734 5.52833C10.7334 5.78833 10.7334 6.21495 10.4734 6.47495L8.94671 8.00164L10.4734 9.52833C10.7334 9.78833 10.7334 10.2149 10.4734 10.4749C10.2134 10.7349 9.78671 10.7349 9.52671 10.4749L8.00003 8.94826L6.47336 10.4749Z" />
        <path fill-rule="evenodd" clip-rule="evenodd" d="M15.3333 8.00163C15.3333 12.055 12.0533 15.335 8 15.335C3.94667 15.335 0.666667 12.055 0.666667 8.00163C0.666667 3.94829 3.94667 0.668294 8 0.668294C12.0533 0.668294 15.3333 3.94829 15.3333 8.00163ZM14 8.00163C14 4.68829 11.3133 2.00163 8 2.00163C4.68667 2.00163 2 4.68829 2 8.00163C2 11.315 4.68667 14.0016 8 14.0016C11.3133 14.0016 14 11.315 14 8.00163Z" />
    </symbol>
    <symbol id="arrow" viewBox="0 0 16 16">
        <path fill-rule="evenodd" clip-rule="evenodd" d="M5.5286 3.5286C5.78895 3.26825 6.21106 3.26825 6.4714 3.5286L10.4714 7.5286C10.7318 7.78895 10.7318 8.21106 10.4714 8.47141L6.4714 12.4714C6.21106 12.7318 5.78895 12.7318 5.5286 12.4714C5.26825 12.2111 5.26825 11.7889 5.5286 11.5286L9.05719 8L5.5286 4.4714C5.26825 4.21105 5.26825 3.78895 5.5286 3.5286Z" fill="#ABB1BA" />
    </symbol>
</svg>
